<svg width="353" height="72" viewBox="0 0 353 72" fill="none" xmlns="http://www.w3.org/2000/svg">
<path d="M84.52 61.896C94.248 61.896 101.16 56.776 101.16 48.136C101.16 38.664 93.544 36.296 86.76 34.248C79.784 32.136 78.696 30.728 78.696 28.68C78.696 26.888 80.296 25.288 83.496 25.288C87.592 25.288 89.704 27.272 91.24 30.472L99.88 25.416C96.616 18.824 90.856 15.304 83.496 15.304C75.752 15.304 68.456 20.296 68.456 28.936C68.456 37.512 74.984 40.712 81.64 42.568C88.36 44.424 90.92 45.512 90.92 48.264C90.92 49.992 89.704 51.912 84.84 51.912C79.784 51.912 77.032 49.416 75.432 45.704L66.6 50.824C69.096 57.416 75.112 61.896 84.52 61.896ZM123.772 38.216V29H117.18V20.04L107.58 22.92V29H102.46V38.216H107.58V49.544C107.58 58.504 111.228 62.28 123.772 61V52.296C119.548 52.552 117.18 52.296 117.18 49.544V38.216H123.772ZM151.815 29V32.008C149.703 29.576 146.567 28.104 142.279 28.104C133.895 28.104 126.983 35.464 126.983 45C126.983 54.536 133.895 61.896 142.279 61.896C146.567 61.896 149.703 60.424 151.815 57.992V61H161.415V29H151.815ZM144.199 52.808C139.783 52.808 136.583 49.8 136.583 45C136.583 40.2 139.783 37.192 144.199 37.192C148.615 37.192 151.815 40.2 151.815 45C151.815 49.8 148.615 52.808 144.199 52.808ZM178.058 34.696V29H168.458V61H178.058V46.536C178.058 40.2 183.69 38.6 187.658 39.24V28.36C183.626 28.36 179.338 30.408 178.058 34.696ZM202.705 51.144V16.2H192.465V61H218.705V51.144H202.705ZM227.695 26.184C230.831 26.184 233.455 23.56 233.455 20.424C233.455 17.288 230.831 14.664 227.695 14.664C224.559 14.664 221.935 17.288 221.935 20.424C221.935 23.56 224.559 26.184 227.695 26.184ZM222.895 61H232.495V29H222.895V61ZM257.12 24.52V15.304C246.496 14.664 241.568 20.04 241.568 29H237.28V38.216H241.568V61H251.168V38.216H257.12V29H251.168C251.168 25.288 253.536 24.2 257.12 24.52ZM280.335 38.216V29H273.743V20.04L264.143 22.92V29H259.023V38.216H264.143V49.544C264.143 58.504 267.791 62.28 280.335 61V52.296C276.111 52.552 273.743 52.296 273.743 49.544V38.216H280.335ZM293.721 48.84H316.441C316.697 47.624 316.825 46.344 316.825 45C316.825 35.336 309.913 28.104 300.569 28.104C290.457 28.104 283.545 35.464 283.545 45C283.545 54.536 290.329 61.896 301.273 61.896C307.353 61.896 312.089 59.656 315.225 55.304L307.545 50.888C306.265 52.296 304.025 53.32 301.401 53.32C297.881 53.32 294.937 52.168 293.721 48.84ZM293.529 41.672C294.425 38.408 296.857 36.616 300.505 36.616C303.385 36.616 306.265 37.96 307.289 41.672H293.529ZM331.87 34.696V29H322.27V61H331.87V46.536C331.87 40.2 337.502 38.6 341.47 39.24V28.36C337.438 28.36 333.15 30.408 331.87 34.696Z" fill="#2C3346"/>
<path d="M0 15.0137H58.9898C58.9898 15.0137 61.5 15.0136 61.5 22.0137C61.5 29.0137 59.3082 29.0137 59.3082 29.0137H17.2039C6.88156 29.0137 0 15.0137 0 15.0137Z" fill="url(#paint0_linear_102_2)"/>
<path d="M12.551 31.0137L59.4082 31.0137C59.4082 31.0137 61.5 31.0137 61.5 38.0137C61.5 45.0137 59.4082 45.0137 59.4082 45.0137L29.9281 45.0137C19.5018 45.0137 12.551 31.0137 12.551 31.0137Z" fill="url(#paint1_linear_102_2)"/>
<path d="M26.7755 47.0137L59.4081 47.0137C59.4081 47.0137 61.5 47.0137 61.5 54C61.5 60.9862 59.4081 61.0137 59.4081 61.0137L43.9886 61.0137C33.6608 61.0137 26.7755 47.0137 26.7755 47.0137Z" fill="url(#paint2_linear_102_2)"/>
<defs>
<linearGradient id="paint0_linear_102_2" x1="38.787" y1="15.0136" x2="12.2438" y2="27.2448" gradientUnits="userSpaceOnUse">
<stop stop-color="#F2A341"/>
<stop offset="1" stop-color="#FAB45E"/>
</linearGradient>
<linearGradient id="paint1_linear_102_2" x1="59.5" y1="31" x2="21.5808" y2="39.0175" gradientUnits="userSpaceOnUse">
<stop stop-color="#D4373E"/>
<stop offset="1" stop-color="#E7686D"/>
</linearGradient>
<linearGradient id="paint2_linear_102_2" x1="62" y1="47" x2="33.9421" y2="56.3206" gradientUnits="userSpaceOnUse">
<stop stop-color="#61C1B6"/>
<stop offset="1" stop-color="#84D3CA"/>
</linearGradient>
</defs>
</svg>
